<mxfile host="app.diagrams.net" modified="2023-12-28T20:53:14.842Z" agent="Mozilla/5.0 (Macintosh; Intel Mac OS X 10_15_7) AppleWebKit/537.36 (KHTML, like Gecko) Chrome/120.0.0.0 Safari/537.36" etag="qgWisuB26aVO1sQgRgmn" version="22.1.15" type="github">
  <diagram name="Page-1" id="IHOCmDlC-4zZOh7GtmuJ">
    <mxGraphModel dx="395" dy="261" grid="1" gridSize="10" guides="1" tooltips="1" connect="1" arrows="1" fold="1" page="1" pageScale="1" pageWidth="850" pageHeight="1100" math="0" shadow="0">
      <root>
        <mxCell id="0" />
        <mxCell id="1" parent="0" />
        <mxCell id="pP7JCH1MFkh4Rmy1CX8w-1" value="Book" style="rounded=0;whiteSpace=wrap;html=1;" vertex="1" parent="1">
          <mxGeometry x="420" y="190" width="60" height="20" as="geometry" />
        </mxCell>
        <mxCell id="pP7JCH1MFkh4Rmy1CX8w-2" value="name" style="ellipse;whiteSpace=wrap;html=1;" vertex="1" parent="1">
          <mxGeometry x="140" y="140" width="40" height="30" as="geometry" />
        </mxCell>
        <mxCell id="pP7JCH1MFkh4Rmy1CX8w-5" value="Author" style="rounded=0;whiteSpace=wrap;html=1;" vertex="1" parent="1">
          <mxGeometry x="130" y="190" width="60" height="20" as="geometry" />
        </mxCell>
        <mxCell id="pP7JCH1MFkh4Rmy1CX8w-6" value="name" style="ellipse;whiteSpace=wrap;html=1;" vertex="1" parent="1">
          <mxGeometry x="380" y="140" width="40" height="30" as="geometry" />
        </mxCell>
        <mxCell id="pP7JCH1MFkh4Rmy1CX8w-7" value="authored" style="rhombus;whiteSpace=wrap;html=1;" vertex="1" parent="1">
          <mxGeometry x="240" y="175" width="80" height="50" as="geometry" />
        </mxCell>
        <mxCell id="pP7JCH1MFkh4Rmy1CX8w-8" value="date" style="ellipse;whiteSpace=wrap;html=1;" vertex="1" parent="1">
          <mxGeometry x="430" y="140" width="40" height="30" as="geometry" />
        </mxCell>
        <mxCell id="pP7JCH1MFkh4Rmy1CX8w-10" value="Member" style="rounded=0;whiteSpace=wrap;html=1;" vertex="1" parent="1">
          <mxGeometry x="250" y="330" width="60" height="20" as="geometry" />
        </mxCell>
        <mxCell id="pP7JCH1MFkh4Rmy1CX8w-11" value="name" style="ellipse;whiteSpace=wrap;html=1;" vertex="1" parent="1">
          <mxGeometry x="260" y="280" width="40" height="30" as="geometry" />
        </mxCell>
        <mxCell id="pP7JCH1MFkh4Rmy1CX8w-13" value="Annotation" style="rounded=0;whiteSpace=wrap;html=1;" vertex="1" parent="1">
          <mxGeometry x="479.99999999999994" y="560" width="80" height="20" as="geometry" />
        </mxCell>
        <mxCell id="pP7JCH1MFkh4Rmy1CX8w-14" value="content" style="ellipse;whiteSpace=wrap;html=1;" vertex="1" parent="1">
          <mxGeometry x="530" y="490" width="60" height="20" as="geometry" />
        </mxCell>
        <mxCell id="pP7JCH1MFkh4Rmy1CX8w-16" value="date" style="ellipse;whiteSpace=wrap;html=1;" vertex="1" parent="1">
          <mxGeometry x="556.67" y="450" width="40" height="20" as="geometry" />
        </mxCell>
        <mxCell id="pP7JCH1MFkh4Rmy1CX8w-17" value="title" style="ellipse;whiteSpace=wrap;html=1;" vertex="1" parent="1">
          <mxGeometry x="460" y="450" width="40" height="20" as="geometry" />
        </mxCell>
        <mxCell id="pP7JCH1MFkh4Rmy1CX8w-18" value="writes" style="rhombus;whiteSpace=wrap;html=1;" vertex="1" parent="1">
          <mxGeometry x="370" y="320" width="60" height="40" as="geometry" />
        </mxCell>
        <mxCell id="pP7JCH1MFkh4Rmy1CX8w-19" value="regarding" style="rhombus;whiteSpace=wrap;html=1;" vertex="1" parent="1">
          <mxGeometry x="538.33" y="300" width="83.33" height="50" as="geometry" />
        </mxCell>
        <mxCell id="pP7JCH1MFkh4Rmy1CX8w-22" value="status" style="ellipse;whiteSpace=wrap;html=1;" vertex="1" parent="1">
          <mxGeometry x="479.99999999999994" y="140" width="40" height="30" as="geometry" />
        </mxCell>
        <mxCell id="pP7JCH1MFkh4Rmy1CX8w-23" value="Genre" style="rounded=0;whiteSpace=wrap;html=1;" vertex="1" parent="1">
          <mxGeometry x="630" y="190" width="60" height="20" as="geometry" />
        </mxCell>
        <mxCell id="pP7JCH1MFkh4Rmy1CX8w-24" value="name" style="ellipse;whiteSpace=wrap;html=1;" vertex="1" parent="1">
          <mxGeometry x="640" y="145" width="40" height="30" as="geometry" />
        </mxCell>
        <mxCell id="pP7JCH1MFkh4Rmy1CX8w-25" value="currently reading" style="shape=process;whiteSpace=wrap;html=1;backgroundOutline=1;" vertex="1" parent="1">
          <mxGeometry x="50" y="470" width="140" height="30" as="geometry" />
        </mxCell>
        <mxCell id="pP7JCH1MFkh4Rmy1CX8w-28" value="type" style="ellipse;whiteSpace=wrap;html=1;" vertex="1" parent="1">
          <mxGeometry x="506.67" y="450" width="40" height="20" as="geometry" />
        </mxCell>
        <mxCell id="pP7JCH1MFkh4Rmy1CX8w-29" value="&lt;h1&gt;Views&lt;/h1&gt;" style="text;html=1;strokeColor=none;fillColor=none;spacing=5;spacingTop=-20;whiteSpace=wrap;overflow=hidden;rounded=0;" vertex="1" parent="1">
          <mxGeometry x="80" y="420" width="80" height="40" as="geometry" />
        </mxCell>
        <mxCell id="pP7JCH1MFkh4Rmy1CX8w-30" value="&lt;p&gt;&lt;span style=&quot;font-weight: 400;&quot;&gt;&lt;font style=&quot;font-size: 12px;&quot;&gt;&quot;type&quot; we can split as follows: &lt;font color=&quot;#ff5a5f&quot;&gt;question&lt;/font&gt; - for clarification or misunderstanding&lt;/font&gt;&lt;/span&gt;&lt;/p&gt;&lt;p&gt;&lt;span style=&quot;font-weight: 400;&quot;&gt;&lt;font style=&quot;font-size: 12px;&quot;&gt;&lt;font color=&quot;#087e8b&quot;&gt;comment&lt;/font&gt; - for a fleshing out&amp;nbsp; or development&lt;/font&gt;&lt;/span&gt;&lt;/p&gt;&lt;p&gt;&lt;span style=&quot;font-weight: 400;&quot;&gt;&lt;font style=&quot;font-size: 12px;&quot;&gt;&lt;font color=&quot;#56e39f&quot;&gt;connection&lt;/font&gt; - for relating to different authors, periods, concepts, etc.&lt;/font&gt;&lt;/span&gt;&lt;/p&gt;" style="text;html=1;strokeColor=none;fillColor=none;spacing=5;spacingTop=-20;whiteSpace=wrap;overflow=hidden;rounded=0;" vertex="1" parent="1">
          <mxGeometry x="660" y="350" width="170" height="140" as="geometry" />
        </mxCell>
        <mxCell id="pP7JCH1MFkh4Rmy1CX8w-32" value="Quote" style="rounded=0;whiteSpace=wrap;html=1;" vertex="1" parent="1">
          <mxGeometry x="660" y="280" width="80" height="20" as="geometry" />
        </mxCell>
        <mxCell id="pP7JCH1MFkh4Rmy1CX8w-33" value="content" style="ellipse;whiteSpace=wrap;html=1;" vertex="1" parent="1">
          <mxGeometry x="675" y="240" width="50" height="30" as="geometry" />
        </mxCell>
        <mxCell id="pP7JCH1MFkh4Rmy1CX8w-34" value="belongs to" style="rhombus;whiteSpace=wrap;html=1;" vertex="1" parent="1">
          <mxGeometry x="493.33" y="230" width="83.33" height="50" as="geometry" />
        </mxCell>
        <mxCell id="pP7JCH1MFkh4Rmy1CX8w-35" value="page" style="ellipse;whiteSpace=wrap;html=1;" vertex="1" parent="1">
          <mxGeometry x="546.67" y="180" width="50" height="30" as="geometry" />
        </mxCell>
        <mxCell id="pP7JCH1MFkh4Rmy1CX8w-36" value="Comment" style="rounded=0;whiteSpace=wrap;html=1;" vertex="1" parent="1">
          <mxGeometry x="250" y="400" width="60" height="20" as="geometry" />
        </mxCell>
        <mxCell id="pP7JCH1MFkh4Rmy1CX8w-37" value="content" style="ellipse;whiteSpace=wrap;html=1;" vertex="1" parent="1">
          <mxGeometry x="250" y="430" width="60" height="30" as="geometry" />
        </mxCell>
        <mxCell id="pP7JCH1MFkh4Rmy1CX8w-38" value="on" style="rhombus;whiteSpace=wrap;html=1;" vertex="1" parent="1">
          <mxGeometry x="330" y="390" width="60" height="40" as="geometry" />
        </mxCell>
        <mxCell id="pP7JCH1MFkh4Rmy1CX8w-39" value="relates to" style="rhombus;whiteSpace=wrap;html=1;" vertex="1" parent="1">
          <mxGeometry x="355" y="460" width="75" height="50" as="geometry" />
        </mxCell>
      </root>
    </mxGraphModel>
  </diagram>
</mxfile>
